# xmcd CD database file
#
# Track frame offsets:
#	150
#	27188
#	51765
#	87773
#	111828
#	132790
#	152963
#	183485
#	207450
#	233290
#
# Disc length: 3508 seconds
#
# Revision: 0
# Processed by: cddbd v1.4PL0 Copyright (c) Steve Scherf et al.
# Submitted via: CDex 1.50Beta6
#
DISCID=7b0db20a
DTITLE=Roberto Fonseca - NO LIMIT: AFRO CUBAN JAZZ
DYEAR=2001
DGENRE=Salsa
TTITLE0=YAMAYA
TTITLE1=XIOMARA
TTITLE2=AI
TTITLE3=72 A STREET
TTITLE4=KOWO KOWO
TTITLE5=DE QUE VALE (MIRO EL FUNDO DE TU SER)
TTITLE6=DE JORGE A PAOLA
TTITLE7=OBSESION
TTITLE8=AGGAYU
TTITLE9=SOLEDAD
EXTD=YEAR: 2001
EXTT0=
EXTT1=
EXTT2=
EXTT3=
EXTT4=
EXTT5=
EXTT6=
EXTT7=
EXTT8=
EXTT9=
PLAYORDER=
